<svg xmlns="http://www.w3.org/2000/svg" xmlns:xlink="http://www.w3.org/1999/xlink" width="110" height="110" viewBox="0 0 110 110">
  <defs>
    <filter id="Path_1" x="30" y="25" width="66" height="70" filterUnits="userSpaceOnUse">
      <feOffset dy="3" input="SourceAlpha"/>
      <feGaussianBlur stdDeviation="3" result="blur"/>
      <feFlood flood-opacity="0.161"/>
      <feComposite operator="in" in2="blur"/>
      <feComposite in="SourceGraphic"/>
    </filter>
  </defs>
  <g id="Group_1" data-name="Group 1" transform="translate(-1145 -138)">
    <circle id="Ellipse_1" data-name="Ellipse 1" cx="55" cy="55" r="55" transform="translate(1145 138)" fill="#42d8bd"/>
    <g transform="matrix(1, 0, 0, 1, 1145, 138)" filter="url(#Path_1)">
      <path id="Path_1-2" data-name="Path 1" d="M39,67a4,4,0,0,0,4,4H67L79,83V71h4a4,4,0,0,0,4-4V35a4,4,0,0,0-4-4H43a4,4,0,0,0-4,4Z" fill="#56f2d8"/>
    </g>
    <path id="Path_2" data-name="Path 2" d="M71,59a4,4,0,0,1-4,4H43L31,75V63H27a4,4,0,0,1-4-4V27a4,4,0,0,1,4-4H67a4,4,0,0,1,4,4Z" transform="translate(1145 138)" fill="#f0f1f1"/>
    <path id="Path_3" data-name="Path 3" d="M70.335,24.8A3.991,3.991,0,0,0,67,23H27a4,4,0,0,0-4,4V59a4,4,0,0,0,4,4h4v1.134Z" transform="translate(1145 138)" fill="#fff"/>
    <circle id="Ellipse_2" data-name="Ellipse 2" cx="4" cy="4" r="4" transform="translate(1176 177)" fill="#42d8bd"/>
    <circle id="Ellipse_3" data-name="Ellipse 3" cx="4" cy="4" r="4" transform="translate(1188 177)" fill="#42d8bd"/>
    <circle id="Ellipse_4" data-name="Ellipse 4" cx="4" cy="4" r="4" transform="translate(1200 177)" fill="#42d8bd"/>
  </g>
</svg>
